# xmcd
#
# Track frame offsets:
#	150
#	16033
#	30685
#	49311
#	67284
#	83111
#	103115
#	118622
#	139163
#	152763
#	167401
#	184146
#	203599
#	224931
#	242116
#	261484
#
# Disc length: 3734 seconds
# Revision: 1
# Processed by: cddbd v1.5.2PL0 Copyright (c) Steve Scherf et al.
# Submitted via: dBpowerAMP V12.0
#
DISCID=ed0e9410
DTITLE=AudioAdrenaline,KentuckyChristianUniversity,Grayson,KY - Big House To Ocean Floor (2013)
DYEAR=2013
DGENRE=Pop Rock
TTITLE0=Big House
TTITLE1=Get Down
TTITLE2=Hands and Feet
TTITLE3=We're a Band
TTITLE4=Underdog
TTITLE5=Never Gonna Be As Big As Jesus
TTITLE6=Leaving 99
TTITLE7=King
TTITLE8=Clap Your Hands
TTITLE9=Mighty Good Leader
TTITLE10=Pierced
TTITLE11=Chevette
TTITLE12=Some Kind of Zombie
TTITLE13=Beautiful
TTITLE14=Man of God
TTITLE15=Ocean Floor
EXTD=
EXTT0=
EXTT1=
EXTT2=
EXTT3=
EXTT4=
EXTT5=
EXTT6=
EXTT7=
EXTT8=
EXTT9=
EXTT10=
EXTT11=
EXTT12=
EXTT13=
EXTT14=
EXTT15=
PLAYORDER=
